<?xml version="1.0" encoding="utf-8"?>
<!-- Generator: Adobe Illustrator 21.0.2, SVG Export Plug-In . SVG Version: 6.00 Build 0)  -->
<svg version="1.1" id="Layer_1" xmlns="http://www.w3.org/2000/svg" xmlns:xlink="http://www.w3.org/1999/xlink" x="0px" y="0px"
	 viewBox="0 0 124 76" style="enable-background:new 0 0 124 76;" xml:space="preserve">
<style type="text/css">
	.st0{fill:#FFFFFF;}
</style>
<g transform="translate(0,-952.36218)">
	<path class="st0" d="M28.3,962.4c10.8,0,20.1,6.1,24.9,14.8h57.3l13.4,12.1l-17.6,14.8l-8.1-8.1l-8.1,8.1l-8.1-8.1L74,1004H53.3
		c-4.8,8.7-14.2,14.8-24.9,14.8c-15.6,0-28.3-12.7-28.3-28.3C0,974.9,12.7,962.4,28.3,962.4z M17.6,983.9c-3.8,0-6.8,2.9-6.8,6.8
		s2.9,6.8,6.8,6.8s6.8-2.9,6.8-6.8S21.3,983.9,17.6,983.9z"/>
</g>
</svg>
