<?xml version="1.0" encoding="utf-8"?>
<!-- Generator: Adobe Illustrator 21.0.2, SVG Export Plug-In . SVG Version: 6.00 Build 0)  -->
<svg version="1.1" id="Layer_1" xmlns="http://www.w3.org/2000/svg" xmlns:xlink="http://www.w3.org/1999/xlink" x="0px" y="0px"
	 viewBox="0 0 116.2 60" style="enable-background:new 0 0 116.2 60;" xml:space="preserve">
<style type="text/css">
	.st0{fill:#999999;}
</style>
<path class="st0" d="M103.6,14.4H55.4C53.9,11.9,51.8,9.6,50,8C37.9-2.9,19.3-1.9,8.4,10.2S-1.5,41,10.5,51.8s30.6,9.7,41.5-2.4
	c2.7-3,4.6-5.8,5.9-8.7L70,44l7.4-8.3l8,7.2l9.1-10.2l8,7.2l13.2-14.7L103.6,14.4z M102.4,34.4l-8-7.2l-9.2,10.3l-8-7.1l-8.4,9.4
	l-13.3-3.6l-0.6,1.7c-1,2.9-2.8,5.8-5.7,9c-9.4,10.5-25.6,11.4-36,2.1S1.9,23.3,11.3,12.8s25.6-11.4,36-2.1c1.8,1.6,3.8,4,5.2,6.5
	l0.6,1h49l8.2,7.3L102.4,34.4z M26.4,21.7c-3.6-3.3-9.2-2.9-12.5,0.7s-3,9.2,0.6,12.5s9.2,2.9,12.5-0.7S30,24.9,26.4,21.7z
	 M17.2,31.9c-2-1.8-2.2-4.9-0.4-6.9s4.9-2.2,6.9-0.4c2,1.8,2.2,4.9,0.4,6.9C22.3,33.6,19.2,33.7,17.2,31.9z M90.6,23.3
	c0,1.1-0.8,2-1.9,2l-29.1,0.2c-0.5,0-0.9-0.2-1.3-0.5c-0.4-0.3-0.7-0.9-0.6-1.4c0-1.1,0.8-2,1.9-2l29.2-0.3
	C89.7,21.4,90.6,22.3,90.6,23.3z"/>
</svg>
