<?xml version="1.0" encoding="utf-8"?>
<!-- Generator: Adobe Illustrator 21.1.0, SVG Export Plug-In . SVG Version: 6.00 Build 0)  -->
<svg version="1.1" id="Layer_1" xmlns="http://www.w3.org/2000/svg" xmlns:xlink="http://www.w3.org/1999/xlink" x="0px" y="0px"
	 viewBox="0 0 92.5 90" style="enable-background:new 0 0 92.5 90;" xml:space="preserve">
<style type="text/css">
	.st0{fill:#FFFFFF;}
</style>
<g transform="translate(0,-952.36218)">
	<path class="st0" d="M21.5,976.7c8,0,14.9,4.5,18.5,11h42.5l10,9l-13,11l-6-6l-6,6l-6-6l-6,6H40c-3.6,6.5-10.5,11-18.5,11
		c-11.6,0-21-9.4-21-21S9.9,976.7,21.5,976.7z M13.5,992.7c-2.8,0-5,2.2-5,5s2.2,5,5,5s5-2.2,5-5S16.3,992.7,13.5,992.7z"/>
</g>
</svg>
