<?xml version="1.0" encoding="utf-8"?>
<!-- Generator: Adobe Illustrator 21.1.0, SVG Export Plug-In . SVG Version: 6.00 Build 0)  -->
<svg version="1.1" id="Layer_1" xmlns="http://www.w3.org/2000/svg" xmlns:xlink="http://www.w3.org/1999/xlink" x="0px" y="0px"
	 viewBox="0 0 90 90" style="enable-background:new 0 0 90 90;" xml:space="preserve">
<style type="text/css">
	.st0{fill:#FFFFFF;}
</style>
<path class="st0" d="M4.4,5.4v80.1h62.6V23.9L48.6,5.4H4.4z M60.1,78.6H11.4V12.4H44v16.2h16.2V78.6z M49.6,22.9v-6.6l6.6,6.6H49.6z
	"/>
<rect x="17.3" y="37.8" class="st0" width="37" height="4.6"/>
<rect x="17.3" y="47" class="st0" width="37" height="4.6"/>
<rect x="17.3" y="56.3" class="st0" width="37" height="4.6"/>
<rect x="17.3" y="65.5" class="st0" width="37" height="4.6"/>
<path class="st0" d="M71.7,73.9l6.9,11.6l6.9-11.6V19.3H71.7V73.9z M76.3,23.9h4.6v4.6h-4.6V23.9z M76.3,33.2h4.6v39.5l-2.3,3.9
	l-2.3-3.9V33.2z"/>
</svg>
