<?xml version="1.0" encoding="utf-8"?>
<!-- Generator: Adobe Illustrator 21.0.2, SVG Export Plug-In . SVG Version: 6.00 Build 0)  -->
<svg version="1.1" id="Layer_1" xmlns="http://www.w3.org/2000/svg" xmlns:xlink="http://www.w3.org/1999/xlink" x="0px" y="0px"
	 viewBox="0 0 77.1 76.1" style="enable-background:new 0 0 77.1 76.1;" xml:space="preserve">
<style type="text/css">
	.st0{fill:#FFFFFF;}
</style>
<path class="st0" d="M0.1,0.1V76h59.3V17.7L41.9,0.1H0.1z M52.8,69.5H6.7V6.8h30.9v15.3h15.3L52.8,69.5L52.8,69.5z M42.9,16.7v-6.2
	l6.2,6.2H42.9z"/>
<rect x="12.3" y="30.8" class="st0" width="35" height="4.4"/>
<rect x="12.3" y="39.5" class="st0" width="35" height="4.4"/>
<rect x="12.3" y="48.3" class="st0" width="35" height="4.4"/>
<rect x="12.3" y="57" class="st0" width="35" height="4.4"/>
<path class="st0" d="M63.8,65l6.5,11l6.5-11V13.3H63.8V65z M68.2,17.7h4.4V22h-4.4V17.7z M68.2,26.5h4.4v37.4l-2.2,3.7l-2.2-3.7
	C68.2,63.9,68.2,26.5,68.2,26.5z"/>
</svg>
